<svg width="24" height="25" viewBox="0 0 24 25" fill="none" xmlns="http://www.w3.org/2000/svg">
<g id="mdi:twitter">
<path id="Vector" d="M22.46 6.5C21.69 6.85 20.86 7.08 20 7.19C20.88 6.66 21.56 5.82 21.88 4.81C21.05 5.31 20.13 5.66 19.16 5.86C18.37 5 17.26 4.5 16 4.5C13.65 4.5 11.73 6.42 11.73 8.79C11.73 9.13 11.77 9.46 11.84 9.77C8.27998 9.59 5.10998 7.88 2.99998 5.29C2.62998 5.92 2.41998 6.66 2.41998 7.44C2.41998 8.93 3.16998 10.25 4.32998 11C3.61998 11 2.95998 10.8 2.37998 10.5V10.53C2.37998 12.61 3.85998 14.35 5.81998 14.74C5.19082 14.9129 4.53001 14.9369 3.88998 14.81C4.16158 15.6625 4.69351 16.4084 5.41099 16.9429C6.12847 17.4775 6.99543 17.7737 7.88998 17.79C6.37365 18.9905 4.49399 19.6394 2.55998 19.63C2.21998 19.63 1.87998 19.61 1.53998 19.57C3.43998 20.79 5.69998 21.5 8.11998 21.5C16 21.5 20.33 14.96 20.33 9.29C20.33 9.1 20.33 8.92 20.32 8.73C21.16 8.13 21.88 7.37 22.46 6.5Z" fill="white"/>
</g>
</svg>
