<svg width="24" height="25" viewBox="0 0 24 25" fill="none" xmlns="http://www.w3.org/2000/svg">
<g id="ri:linkedin-fill">
<path id="Vector" d="M6.94 5.5C6.93974 6.03043 6.72877 6.53904 6.35351 6.91392C5.97825 7.28881 5.46944 7.49927 4.939 7.499C4.40857 7.49874 3.89997 7.28777 3.52508 6.91251C3.1502 6.53725 2.93974 6.02843 2.94 5.498C2.94027 4.96757 3.15124 4.45897 3.5265 4.08408C3.90176 3.70919 4.41057 3.49874 4.941 3.499C5.47144 3.49927 5.98004 3.71023 6.35492 4.08549C6.72981 4.46075 6.94027 4.96957 6.94 5.5ZM7 8.98H3V21.5H7V8.98ZM13.32 8.98H9.34V21.5H13.28V14.93C13.28 11.27 18.05 10.93 18.05 14.93V21.5H22V13.57C22 7.4 14.94 7.63 13.28 10.66L13.32 8.98Z" fill="white"/>
</g>
</svg>
